<svg width="62" height="62" viewBox="0 0 62 62" fill="none" xmlns="http://www.w3.org/2000/svg">
<circle cx="31" cy="31" r="30.5" fill="white" stroke="#F3F4F6"/>
<path d="M44.1429 40.4422V41.9388H17.8572V40.4422L20.7778 37.449V28.4694C20.7778 23.8299 23.7423 19.7442 28.0794 18.4272V17.9932C28.0794 17.1994 28.3871 16.438 28.9348 15.8767C29.4826 15.3154 30.2254 15 31 15C31.7746 15 32.5175 15.3154 33.0652 15.8767C33.613 16.438 33.9207 17.1994 33.9207 17.9932V18.4272C38.2578 19.7442 41.2223 23.8299 41.2223 28.4694V37.449L44.1429 40.4422Z" fill="#C7C3FF"/>
<path d="M33.4242 45.9958C34.0672 45.3528 34.4284 43.5714 34.4284 43.5714H27.5713C27.5713 44.4807 27.9325 45.3528 28.5755 45.9958C29.2185 46.6388 30.0905 47 30.9999 47C31.9092 47 32.7812 46.6388 33.4242 45.9958Z" fill="#C7C3FF"/>
</svg>
