<svg width="13" height="13" viewBox="0 0 13 13" fill="none" xmlns="http://www.w3.org/2000/svg">
<path d="M1.77246 0.5H11.2275C11.5486 0.500077 11.8673 0.640051 12.1104 0.907227C12.355 1.1763 12.5 1.55107 12.5 1.9502V11.0498C12.5 11.4489 12.355 11.8237 12.1104 12.0928C11.8673 12.3599 11.5486 12.4999 11.2275 12.5H1.77246C1.45136 12.4999 1.13271 12.3599 0.889648 12.0928C0.645036 11.8237 0.5 11.4489 0.5 11.0498V1.9502C0.5 1.55107 0.645036 1.1763 0.889648 0.907227C1.13271 0.640051 1.45136 0.500077 1.77246 0.5ZM1.77246 0.799805C1.46706 0.799882 1.18539 0.934299 0.985352 1.1543C0.786696 1.37282 0.681641 1.65976 0.681641 1.9502V11.0498C0.681641 11.3402 0.786696 11.6272 0.985352 11.8457C1.18539 12.0657 1.46706 12.2001 1.77246 12.2002H11.2275C11.5329 12.2001 11.8146 12.0657 12.0146 11.8457C12.2133 11.6272 12.3184 11.3402 12.3184 11.0498V1.9502C12.3184 1.65976 12.2133 1.37282 12.0146 1.1543C11.8146 0.934299 11.5329 0.799883 11.2275 0.799805H1.77246ZM5.90918 8.9502H9.4541C9.46197 8.9502 9.48054 8.95316 9.50195 8.97656C9.52488 9.00178 9.5458 9.04544 9.5459 9.09961C9.5459 9.15396 9.52493 9.19836 9.50195 9.22363C9.48058 9.24694 9.46196 9.25 9.4541 9.25H5.90918C5.90131 9.25 5.88277 9.2471 5.86133 9.22363C5.83835 9.19836 5.81836 9.15396 5.81836 9.09961C5.81846 9.04544 5.8384 9.00178 5.86133 8.97656C5.88281 8.953 5.9013 8.9502 5.90918 8.9502ZM3.63672 8.9502V9.25H3.4541V8.9502H3.63672ZM5.90918 6.34961H9.4541C9.46199 6.34961 9.48046 6.35335 9.50195 6.37695C9.52493 6.40223 9.5459 6.44565 9.5459 6.5C9.5459 6.55435 9.52493 6.59777 9.50195 6.62305C9.48046 6.64665 9.46199 6.65039 9.4541 6.65039H5.90918C5.90128 6.65039 5.88286 6.64674 5.86133 6.62305C5.83838 6.59776 5.81836 6.55429 5.81836 6.5C5.81836 6.44571 5.83838 6.40224 5.86133 6.37695C5.88286 6.35326 5.90128 6.34961 5.90918 6.34961ZM3.63672 6.34961V6.65039H3.4541V6.34961H3.63672ZM5.90918 3.75H9.4541C9.46195 3.75 9.48058 3.75306 9.50195 3.77637C9.52493 3.80164 9.5459 3.84604 9.5459 3.90039C9.5458 3.95456 9.52488 3.99822 9.50195 4.02344C9.48054 4.04684 9.46197 4.0498 9.4541 4.0498H5.90918C5.9013 4.0498 5.88281 4.047 5.86133 4.02344C5.8384 3.99822 5.81846 3.95456 5.81836 3.90039C5.81836 3.84604 5.83835 3.80164 5.86133 3.77637C5.88277 3.7529 5.90131 3.75 5.90918 3.75ZM3.63672 3.75V4.0498H3.4541V3.75H3.63672Z" fill="black" stroke="#6B63E1"/>
</svg>
