<svg width="12" height="7" viewBox="0 0 12 7" fill="none" xmlns="http://www.w3.org/2000/svg">
<path d="M6.00724 4.73279L10.1726 0.340084C10.3876 0.113363 10.6384 3.75368e-06 10.9251 3.75368e-06C11.2117 3.75368e-06 11.4625 0.113363 11.6775 0.340084C11.8925 0.566804 12 0.836225 12 1.14834C12 1.46046 11.8925 1.7295 11.6775 1.95547L7.53902 6.34818C7.12696 6.78273 6.61637 7 6.00724 7C5.39811 7 4.88751 6.78273 4.47545 6.34818L0.310077 1.95547C0.0950901 1.72875 -0.00810336 1.45971 0.000496126 1.14834C0.00909561 0.836981 0.121247 0.56756 0.336951 0.340084C0.552654 0.112607 0.808131 -0.000751981 1.10338 3.75368e-06C1.39863 0.000759489 1.65375 0.114119 1.86873 0.340084L6.00724 4.73279Z" fill="#9CA2AE"/>
</svg>
