<svg width="13" height="16" viewBox="0 0 13 16" fill="none" xmlns="http://www.w3.org/2000/svg">
<path d="M6.26316 7.11111C6.97101 7.11111 7.66296 6.90258 8.25151 6.51189C8.84007 6.1212 9.29879 5.5659 9.56967 4.91621C9.84056 4.26652 9.91143 3.55161 9.77334 2.8619C9.63524 2.17219 9.29438 1.53865 8.79386 1.0414C8.29333 0.544146 7.65562 0.205512 6.96138 0.0683206C6.26713 -0.0688713 5.54752 0.00154057 4.89355 0.270652C4.23959 0.539764 3.68063 0.995488 3.28737 1.5802C2.89411 2.1649 2.68421 2.85233 2.68421 3.55556C2.68421 4.49855 3.06128 5.40292 3.73246 6.06971C4.40364 6.73651 5.31396 7.11111 6.26316 7.11111ZM6.26316 1.77778C6.61708 1.77778 6.96306 1.88204 7.25734 2.07739C7.55161 2.27273 7.78098 2.55038 7.91642 2.87523C8.05186 3.20008 8.08729 3.55753 8.01825 3.90238C7.9492 4.24724 7.77877 4.56401 7.52851 4.81263C7.27824 5.06126 6.95939 5.23058 6.61227 5.29917C6.26514 5.36777 5.90534 5.33257 5.57836 5.19801C5.25137 5.06345 4.97189 4.83559 4.77526 4.54324C4.57863 4.25088 4.47368 3.90717 4.47368 3.55556C4.47368 3.08406 4.66222 2.63188 4.99781 2.29848C5.3334 1.96508 5.78856 1.77778 6.26316 1.77778ZM6.26316 8.88889C4.60207 8.88889 3.00901 9.54444 1.83444 10.7113C0.659866 11.8782 0 13.4609 0 15.1111C0 15.3469 0.0942666 15.573 0.262062 15.7397C0.429858 15.9064 0.657438 16 0.894737 16C1.13204 16 1.35962 15.9064 1.52741 15.7397C1.69521 15.573 1.78947 15.3469 1.78947 15.1111C1.78947 13.9324 2.26081 12.8019 3.09979 11.9684C3.93876 11.1349 5.07666 10.6667 6.26316 10.6667C7.44965 10.6667 8.58755 11.1349 9.42653 11.9684C10.2655 12.8019 10.7368 13.9324 10.7368 15.1111C10.7368 15.3469 10.8311 15.573 10.9989 15.7397C11.1667 15.9064 11.3943 16 11.6316 16C11.8689 16 12.0965 15.9064 12.2643 15.7397C12.432 15.573 12.5263 15.3469 12.5263 15.1111C12.5263 13.4609 11.8664 11.8782 10.6919 10.7113C9.51731 9.54444 7.92425 8.88889 6.26316 8.88889Z" fill="#626273"/>
</svg>
