<svg width="38" height="38" viewBox="0 0 38 38" fill="none" xmlns="http://www.w3.org/2000/svg">
<circle cx="19" cy="19" r="18.5" fill="#DBD9FF" stroke="#F3F4F6"/>
<path d="M19 20.5C20.0602 20.4994 21.104 20.6241 22.1318 20.874C23.1579 21.1235 24.1707 21.4955 25.1699 21.9932V21.9941C25.5702 22.2012 25.8911 22.4997 26.1367 22.8994C26.3795 23.2946 26.5005 23.7245 26.5 24.1992V26.5H11.5V24.2002L11.5059 24.0234C11.5324 23.6172 11.652 23.2455 11.8643 22.9004C12.1099 22.501 12.4301 22.202 12.8301 21.9941L12.8291 21.9932C13.8284 21.4941 14.8413 21.1222 15.8672 20.874C16.8953 20.6254 17.9395 20.5007 19 20.5ZM19 21.5C18.0259 21.4993 17.0608 21.617 16.1055 21.8525C15.1509 22.0879 14.208 22.4384 13.2773 22.9023L13.2666 22.9072L13.2568 22.9131C13.0298 23.0393 12.8467 23.2172 12.7109 23.4385C12.604 23.6128 12.5384 23.8018 12.5127 24L12.5 24.2002V25.5H25.5V24.2002C25.5 23.9295 25.4311 23.6722 25.29 23.4404C25.1544 23.2177 24.9705 23.0384 24.7422 22.9121L24.7324 22.9072L24.7236 22.9023L24.374 22.7334C23.5566 22.3512 22.7293 22.0574 21.8936 21.8525C20.9386 21.6185 19.9736 21.5007 19 21.5ZM19 11.5C19.9663 11.5 20.7814 11.838 21.4717 12.5283C22.162 13.2186 22.5 14.0337 22.5 15C22.5 15.9663 22.162 16.7814 21.4717 17.4717C20.7814 18.162 19.9663 18.5 19 18.5C18.0337 18.5 17.2186 18.162 16.5283 17.4717C15.838 16.7814 15.5 15.9663 15.5 15C15.5 14.0337 15.838 13.2186 16.5283 12.5283C17.2186 11.838 18.0337 11.5 19 11.5ZM19.001 12.5C18.3153 12.4984 17.717 12.7486 17.2334 13.2363C16.7521 13.7217 16.5025 14.3173 16.5 14.998C16.4975 15.6818 16.7479 16.2802 17.2344 16.7666C17.7207 17.2529 18.3187 17.5032 19.002 17.5L19.001 17.499C19.6841 17.4988 20.2818 17.2505 20.7666 16.7666C21.2519 16.282 21.5008 15.6834 21.5 14.999C21.4991 14.3156 21.2505 13.7182 20.7666 13.2344C20.2827 12.7505 19.6848 12.5017 19.001 12.5Z" fill="#6B63E1" stroke="#F3F4F6"/>
</svg>
