<svg width="54" height="54" viewBox="0 0 54 54" fill="none" xmlns="http://www.w3.org/2000/svg">
<circle cx="27" cy="27" r="27" fill="#6B63E1"/>
<path d="M31.175 27.5885H20C19.7167 27.5885 19.4793 27.4925 19.288 27.3005C19.0967 27.1085 19.0007 26.8712 19 26.5885C18.9993 26.3059 19.0953 26.0685 19.288 25.8765C19.4807 25.6845 19.718 25.5885 20 25.5885H31.175L26.275 20.6885C26.075 20.4885 25.979 20.2552 25.987 19.9885C25.995 19.7219 26.0993 19.4885 26.3 19.2885C26.5 19.1052 26.7333 19.0092 27 19.0005C27.2667 18.9919 27.5 19.0879 27.7 19.2885L34.3 25.8885C34.4 25.9885 34.471 26.0969 34.513 26.2135C34.555 26.3302 34.5757 26.4552 34.575 26.5885C34.5743 26.7219 34.5537 26.8469 34.513 26.9635C34.4723 27.0802 34.4013 27.1885 34.3 27.2885L27.7 33.8885C27.5167 34.0719 27.2877 34.1635 27.013 34.1635C26.7383 34.1635 26.5007 34.0719 26.3 33.8885C26.1 33.6885 26 33.4512 26 33.1765C26 32.9019 26.1 32.6642 26.3 32.4635L31.175 27.5885Z" fill="white"/>
</svg>
