<svg width="145" height="33" viewBox="0 0 145 33" fill="none" xmlns="http://www.w3.org/2000/svg">
<path d="M52.9492 7.18269V20.005C52.9492 21.1814 52.6868 22.2097 52.1621 23.0899C51.6458 23.9617 50.918 24.6345 49.9785 25.1085C49.0391 25.5824 47.9557 25.8194 46.7285 25.8194C45.5944 25.8194 44.5788 25.6205 43.6816 25.2227C42.7845 24.8165 42.0778 24.2113 41.5615 23.4073C41.0537 22.5948 40.804 21.6046 40.8125 20.4366H44.6211C44.6296 21.156 44.8411 21.7231 45.2559 22.1378C45.6706 22.544 46.2207 22.7471 46.9062 22.7471C47.6341 22.7471 48.1927 22.5144 48.582 22.0489C48.9714 21.5834 49.166 20.9021 49.166 20.005V7.18269H52.9492ZM62.166 25.8448C60.7949 25.8448 59.6016 25.5486 58.5859 24.9561C57.5703 24.3637 56.7874 23.53 56.2373 22.4552C55.6872 21.3718 55.4121 20.1234 55.4121 18.71C55.4121 17.2966 55.6829 16.0525 56.2246 14.9776C56.7747 13.9027 57.5576 13.0733 58.5732 12.4893C59.5973 11.8969 60.7949 11.6007 62.166 11.6007C63.5371 11.6007 64.7347 11.8969 65.7588 12.4893C66.7829 13.0733 67.57 13.9027 68.1201 14.9776C68.6702 16.0525 68.9453 17.2966 68.9453 18.71C68.9453 20.1234 68.6702 21.3718 68.1201 22.4552C67.57 23.53 66.7829 24.3637 65.7588 24.9561C64.7347 25.5486 63.5371 25.8448 62.166 25.8448ZM62.1914 22.9249C62.8177 22.9249 63.3509 22.7471 63.791 22.3917C64.2311 22.0277 64.5612 21.5284 64.7812 20.8936C65.0013 20.2589 65.1113 19.531 65.1113 18.71C65.1113 17.8891 65.0013 17.1612 64.7812 16.5264C64.5612 15.8832 64.2311 15.3796 63.791 15.0157C63.3509 14.6518 62.8177 14.4698 62.1914 14.4698C61.5566 14.4698 61.015 14.6518 60.5664 15.0157C60.1263 15.3796 59.792 15.8832 59.5635 16.5264C59.335 17.1612 59.2207 17.8891 59.2207 18.71C59.2207 19.5225 59.335 20.2504 59.5635 20.8936C59.792 21.5284 60.1263 22.0277 60.5664 22.3917C61.015 22.7471 61.5566 22.9249 62.1914 22.9249ZM73.0586 30.7452C72.2715 30.7452 71.6367 30.7198 71.1543 30.669V27.7491C71.7975 27.783 72.3053 27.7999 72.6777 27.7999C72.974 27.7999 73.2194 27.7745 73.4141 27.7237C73.6172 27.6729 73.8076 27.5544 73.9854 27.3682C74.1715 27.182 74.3366 26.9027 74.4805 26.5303L74.709 25.9464L69.7578 11.7784H73.6934L76.5879 21.9346H76.7402L79.6602 11.7784H83.6465L78.2637 27.0889C77.849 28.2654 77.2269 29.1667 76.3975 29.793C75.568 30.4278 74.4551 30.7452 73.0586 30.7452ZM91.2129 25.8448C89.8333 25.8448 88.6315 25.5443 87.6074 24.9434C86.5918 24.3425 85.8132 23.5046 85.2715 22.4298C84.7298 21.3549 84.459 20.115 84.459 18.71C84.459 17.3051 84.7298 16.0694 85.2715 15.003C85.8216 13.9281 86.6045 13.0945 87.6201 12.502C88.6442 11.9011 89.8418 11.6007 91.2129 11.6007C92.3893 11.6007 93.4303 11.8165 94.3359 12.2481C95.2415 12.6798 95.9525 13.2934 96.4688 14.0889C96.9935 14.876 97.2812 15.7901 97.332 16.8311H93.8027C93.6842 16.1287 93.4049 15.5701 92.9648 15.1553C92.5247 14.7322 91.9577 14.5206 91.2637 14.5206C90.6628 14.5206 90.1338 14.6856 89.6768 15.0157C89.2282 15.3373 88.8812 15.8113 88.6357 16.4376C88.3903 17.0639 88.2676 17.8044 88.2676 18.6593C88.2676 19.5395 88.3903 20.2927 88.6357 20.919C88.8812 21.5453 89.2282 22.0235 89.6768 22.3536C90.1253 22.6837 90.6543 22.8487 91.2637 22.8487C91.9323 22.8487 92.4951 22.6498 92.9521 22.252C93.4092 21.8542 93.6927 21.2914 93.8027 20.5635H97.332C97.2728 21.6046 96.9893 22.5229 96.4814 23.3184C95.9736 24.114 95.2669 24.7361 94.3613 25.1846C93.4642 25.6247 92.4147 25.8448 91.2129 25.8448ZM99.668 11.7784H103.299V14.1651H103.451C103.697 13.3272 104.116 12.6882 104.708 12.2481C105.3 11.7996 105.99 11.5753 106.777 11.5753C107.209 11.5753 107.607 11.6176 107.971 11.7022V15.0538C107.785 15.003 107.535 14.9565 107.222 14.9141C106.909 14.8718 106.625 14.8507 106.371 14.8507C105.812 14.8507 105.309 14.9734 104.86 15.2188C104.412 15.4643 104.061 15.807 103.807 16.2471C103.553 16.6788 103.426 17.1697 103.426 17.7198V25.5655H99.668V11.7784ZM115.613 25.8448C114.217 25.8448 113.007 25.557 111.982 24.9815C110.967 24.406 110.184 23.585 109.634 22.5186C109.084 21.4438 108.809 20.1827 108.809 18.7354C108.809 17.322 109.079 16.0779 109.621 15.003C110.171 13.9197 110.95 13.0818 111.957 12.4893C112.964 11.8969 114.132 11.6007 115.461 11.6007C116.697 11.6007 117.801 11.863 118.774 12.3878C119.756 12.904 120.526 13.6869 121.085 14.7364C121.652 15.7859 121.936 17.0681 121.936 18.5831V19.6495H112.516C112.516 20.335 112.643 20.9317 112.896 21.4395C113.159 21.9473 113.527 22.3409 114.001 22.6202C114.483 22.891 115.046 23.0264 115.689 23.0264C116.307 23.0264 116.84 22.9037 117.289 22.6583C117.738 22.4044 118.059 22.0616 118.254 21.63H121.834C121.656 22.4763 121.292 23.2169 120.742 23.8516C120.192 24.4864 119.477 24.9773 118.597 25.3243C117.725 25.6713 116.73 25.8448 115.613 25.8448ZM118.381 17.2882C118.381 16.738 118.258 16.2471 118.013 15.8155C117.776 15.3754 117.441 15.0326 117.01 14.7872C116.578 14.5417 116.087 14.419 115.537 14.419C114.979 14.419 114.471 14.546 114.014 14.7999C113.565 15.0538 113.205 15.4008 112.935 15.8409C112.672 16.281 112.533 16.7634 112.516 17.2882H118.381ZM123.154 11.7784H126.963L129.121 21.0968H129.248L131.508 11.7784H135.24L137.525 21.046H137.652L139.785 11.7784H143.594L139.811 25.5655H135.85L133.463 16.8057H133.285L130.898 25.5655H126.912L123.154 11.7784Z" fill="#21212F"/>
<rect y="0.565575" width="31.868" height="31.868" fill="#6B63E1"/>
</svg>
