<svg width="117" height="30" viewBox="0 0 117 30" fill="none" xmlns="http://www.w3.org/2000/svg">
<path d="M113.352 12H116.184L110.304 24H107.76L106.68 15.912L102.864 24H100.2L98.5438 12H101.136L102.096 20.28L105.984 12H108.528L108.504 12.048L109.608 20.28L113.352 12Z" fill="#21212F"/>
<path d="M91.8056 11.688C93.5976 11.688 94.9896 12.304 95.9816 13.536C96.9896 14.768 97.3256 16.264 96.9896 18.024C96.8456 18.6 96.7496 18.96 96.7016 19.104H87.1496C87.1656 20.032 87.4696 20.736 88.0616 21.216C88.6536 21.696 89.4296 21.936 90.3896 21.936C91.8136 21.936 92.9416 21.432 93.7736 20.424L95.6696 21.864C94.3576 23.496 92.5256 24.312 90.1736 24.312C88.2376 24.312 86.7576 23.68 85.7336 22.416C84.7096 21.152 84.3496 19.6 84.6536 17.76C84.9576 16 85.7816 14.552 87.1256 13.416C88.4696 12.264 90.0296 11.688 91.8056 11.688ZM87.5096 16.968H94.5416C94.5576 15.976 94.2936 15.24 93.7496 14.76C93.2216 14.28 92.5176 14.04 91.6376 14.04C90.6936 14.04 89.8536 14.304 89.1176 14.832C88.3976 15.344 87.8616 16.056 87.5096 16.968Z" fill="#21212F"/>
<path d="M80.8089 13.8001C81.7689 12.4081 83.1209 11.7361 84.8649 11.7841L84.3609 14.5921C83.7849 14.5441 83.2249 14.6001 82.6809 14.7601C82.1369 14.9201 81.6169 15.2481 81.1209 15.7441C80.6409 16.2401 80.3129 16.8721 80.1369 17.6401L79.0089 24.0001H76.4169L78.5289 12.0001H81.1209L80.8089 13.8001Z" fill="#21212F"/>
<path d="M69.1942 24.312C67.3702 24.312 65.9382 23.672 64.8982 22.392C63.8582 21.112 63.4902 19.56 63.7942 17.736C64.0982 15.976 64.9222 14.528 66.2662 13.392C67.6262 12.256 69.2102 11.688 71.0182 11.688C72.2342 11.688 73.2742 11.968 74.1382 12.528C75.0182 13.088 75.6422 13.848 76.0102 14.808L73.6822 16.008C73.2182 14.824 72.2502 14.232 70.7782 14.232C69.7062 14.232 68.7542 14.576 67.9222 15.264C67.0902 15.952 66.5782 16.84 66.3862 17.928C66.2102 19.016 66.4102 19.928 66.9862 20.664C67.5622 21.4 68.3862 21.768 69.4582 21.768C70.1622 21.768 70.8102 21.6 71.4022 21.264C72.0102 20.928 72.5062 20.472 72.8902 19.896L74.9782 21.24C74.3702 22.232 73.5542 22.992 72.5302 23.52C71.5062 24.048 70.3942 24.312 69.1942 24.312Z" fill="#21212F"/>
<path d="M61.4422 12H64.3223L57.5303 24.384C55.8503 27.504 53.6423 28.976 50.9062 28.8L51.3382 26.376C52.1222 26.424 52.7782 26.264 53.3062 25.896C53.8342 25.528 54.3383 24.92 54.8183 24.072L55.0343 23.736L52.0823 12H54.7463L56.8102 20.808L61.4422 12Z" fill="#21212F"/>
<path d="M43.6719 24.312C41.7839 24.312 40.3199 23.672 39.2799 22.392C38.2399 21.096 37.8959 19.528 38.2479 17.688C38.5839 15.912 39.4399 14.472 40.8159 13.368C42.1919 12.248 43.7759 11.688 45.5679 11.688C47.3439 11.688 48.7439 12.328 49.7679 13.608C50.7919 14.888 51.1439 16.432 50.8239 18.24C50.5039 20.032 49.6559 21.496 48.2799 22.632C46.9199 23.752 45.3839 24.312 43.6719 24.312ZM43.8639 21.792C44.9039 21.792 45.8399 21.448 46.6719 20.76C47.5199 20.072 48.0479 19.136 48.2559 17.952C48.4639 16.816 48.2639 15.912 47.6559 15.24C47.0479 14.552 46.2319 14.208 45.2079 14.208C44.1679 14.208 43.2319 14.552 42.3999 15.24C41.5679 15.912 41.0479 16.832 40.8399 18C40.6479 19.168 40.8479 20.096 41.4399 20.784C42.0319 21.456 42.8399 21.792 43.8639 21.792Z" fill="#21212F"/>
<path d="M29.376 24.3122C26.752 24.3122 25.056 23.2482 24.288 21.1202L26.808 19.7522C27.176 21.0002 28.104 21.6242 29.592 21.6242C30.584 21.6242 31.376 21.3922 31.968 20.9282C32.56 20.4482 32.936 19.7762 33.096 18.9122L35.16 7.2002H37.92L35.856 18.9362C35.536 20.7602 34.792 22.1122 33.624 22.9922C32.472 23.8722 31.056 24.3122 29.376 24.3122Z" fill="#21212F"/>
<g clip-path="url(#clip0_972_5886)">
<path d="M14.6824 14.6307C14.0907 14.2821 13.3342 14.4875 12.9919 15.0898L6.57897 26.3639C5.96988 27.4342 4.62465 27.7996 3.57329 27.1795C2.52193 26.5594 2.16307 25.1899 2.77216 24.1195L5.28417 19.7029C5.62654 19.1006 5.4248 18.3304 4.83317 17.9819C4.24154 17.6333 3.48503 17.8387 3.14266 18.441L0.630649 22.8576C-0.66318 25.1316 0.099151 28.0425 2.3328 29.3596C4.56063 30.6729 7.41113 29.9047 8.70981 27.6435L15.1324 16.3527C15.4748 15.7504 15.273 14.9802 14.6814 14.6317L14.6824 14.6307Z" fill="#21212F"/>
<path d="M18.6672 0.641536C16.4336 -0.675648 13.5743 0.100444 12.2805 2.37441L7.31468 11.105C6.97231 11.7073 7.17404 12.4774 7.76568 12.826C8.35731 13.1745 9.11382 12.9692 9.45619 12.3668L14.422 3.6363C15.0311 2.56597 16.3763 2.20063 17.4277 2.82071C18.4791 3.4408 18.8379 4.81031 18.2288 5.88065L16.7197 8.53279C16.3773 9.1351 16.579 9.90527 17.1707 10.2538C17.7623 10.6024 18.5188 10.397 18.8612 9.79468L20.3703 7.14254C21.6642 4.86857 20.9018 1.95773 18.6682 0.640548L18.6672 0.641536Z" fill="#21212F"/>
<path d="M6.00268 16.3976C6.61012 16.3976 7.10254 15.8963 7.10254 15.2779C7.10254 14.6595 6.61012 14.1582 6.00268 14.1582C5.39525 14.1582 4.90283 14.6595 4.90283 15.2779C4.90283 15.8963 5.39525 16.3976 6.00268 16.3976Z" fill="#21212F"/>
<path d="M15.5813 13.2921C16.1887 13.2921 16.6812 12.7908 16.6812 12.1724C16.6812 11.554 16.1887 11.0527 15.5813 11.0527C14.9739 11.0527 14.4814 11.554 14.4814 12.1724C14.4814 12.7908 14.9739 13.2921 15.5813 13.2921Z" fill="#21212F"/>
</g>
<defs>
<clipPath id="clip0_972_5886">
<rect width="21" height="30" fill="white"/>
</clipPath>
</defs>
</svg>
