<svg width="46" height="46" viewBox="0 0 46 46" fill="none" xmlns="http://www.w3.org/2000/svg">
<circle cx="23" cy="23" r="23" fill="#DBD9FF"/>
<path d="M23 23.0001C21.6684 23.0001 20.5285 22.5259 19.5803 21.5777C18.632 20.6295 18.1579 19.4895 18.1579 18.158C18.1579 16.8264 18.632 15.6865 19.5803 14.7382C20.5285 13.79 21.6684 13.3159 23 13.3159C24.3316 13.3159 25.4715 13.79 26.4197 14.7382C27.368 15.6865 27.8421 16.8264 27.8421 18.158C27.8421 19.4895 27.368 20.6295 26.4197 21.5777C25.4715 22.5259 24.3316 23.0001 23 23.0001ZM13.3158 32.6843V29.2948C13.3158 28.6088 13.4925 27.9786 13.846 27.404C14.1995 26.8294 14.6684 26.3903 15.2526 26.0869C16.5035 25.4615 17.7746 24.9926 19.0658 24.6803C20.357 24.368 21.6684 24.2114 23 24.2106C24.3316 24.2098 25.643 24.3663 26.9342 24.6803C28.2254 24.9942 29.4965 25.4631 30.7474 26.0869C31.3325 26.3895 31.8017 26.8286 32.1552 27.404C32.5087 27.9794 32.685 28.6096 32.6842 29.2948V32.6843H13.3158ZM15.7368 30.2632H30.2632V29.2948C30.2632 29.0729 30.2079 28.8711 30.0973 28.6895C29.9868 28.508 29.8403 28.3667 29.6579 28.2659C28.5684 27.7211 27.4689 27.3128 26.3592 27.0408C25.2496 26.7688 24.1298 26.6325 23 26.6316C21.8702 26.6308 20.7504 26.7672 19.6408 27.0408C18.5311 27.3144 17.4316 27.7227 16.3421 28.2659C16.1605 28.3667 16.0141 28.508 15.9027 28.6895C15.7913 28.8711 15.736 29.0729 15.7368 29.2948V30.2632ZM23 20.579C23.6658 20.579 24.236 20.3422 24.7105 19.8684C25.185 19.3947 25.4219 18.8246 25.4211 18.158C25.4203 17.4914 25.1834 16.9216 24.7105 16.4487C24.2376 15.9758 23.6674 15.7385 23 15.7369C22.3326 15.7353 21.7628 15.9726 21.2907 16.4487C20.8186 16.9248 20.5814 17.4946 20.579 18.158C20.5765 18.8213 20.8138 19.3915 21.2907 19.8684C21.7677 20.3454 22.3374 20.5822 23 20.579Z" fill="#6B63E1"/>
</svg>
