<svg width="12" height="7" viewBox="0 0 12 7" fill="none" xmlns="http://www.w3.org/2000/svg">
<path d="M1.847 6.67097L5.99946 2.28067L10.1519 6.67097C10.3676 6.8998 10.6193 7.00927 10.9069 6.99939C11.1945 6.9895 11.4462 6.88003 11.6619 6.67097C11.8783 6.44366 11.9909 6.17302 11.9995 5.85905C12.0081 5.54508 11.9046 5.27406 11.6889 5.04599L7.53641 0.655694C7.12296 0.218565 6.61065 0 5.99946 0C5.38828 0 4.87596 0.218565 4.46251 0.655694L0.310046 5.04599C0.095053 5.27482 -0.0081291 5.54584 0.0004994 5.85905C0.0091279 6.17226 0.121298 6.4429 0.337011 6.67097C0.552723 6.88079 0.804387 6.99026 1.092 6.99939C1.37962 7.00851 1.63128 6.89904 1.847 6.67097Z" fill="#9CA2AE"/>
</svg>
