<svg width="145" height="32" viewBox="0 0 145 32" fill="none" xmlns="http://www.w3.org/2000/svg">
<path d="M52.9492 6.61719V19.4395C52.9492 20.6159 52.6868 21.6442 52.1621 22.5244C51.6458 23.3962 50.918 24.069 49.9785 24.543C49.0391 25.0169 47.9557 25.2539 46.7285 25.2539C45.5944 25.2539 44.5788 25.055 43.6816 24.6572C42.7845 24.251 42.0778 23.6458 41.5615 22.8418C41.0537 22.0293 40.804 21.0391 40.8125 19.8711H44.6211C44.6296 20.5905 44.8411 21.1576 45.2559 21.5723C45.6706 21.9785 46.2207 22.1816 46.9062 22.1816C47.6341 22.1816 48.1927 21.9489 48.582 21.4834C48.9714 21.0179 49.166 20.3366 49.166 19.4395V6.61719H52.9492ZM62.166 25.2793C60.7949 25.2793 59.6016 24.9831 58.5859 24.3906C57.5703 23.7982 56.7874 22.9645 56.2373 21.8896C55.6872 20.8063 55.4121 19.5579 55.4121 18.1445C55.4121 16.7311 55.6829 15.487 56.2246 14.4121C56.7747 13.3372 57.5576 12.5078 58.5732 11.9238C59.5973 11.3314 60.7949 11.0352 62.166 11.0352C63.5371 11.0352 64.7347 11.3314 65.7588 11.9238C66.7829 12.5078 67.57 13.3372 68.1201 14.4121C68.6702 15.487 68.9453 16.7311 68.9453 18.1445C68.9453 19.5579 68.6702 20.8063 68.1201 21.8896C67.57 22.9645 66.7829 23.7982 65.7588 24.3906C64.7347 24.9831 63.5371 25.2793 62.166 25.2793ZM62.1914 22.3594C62.8177 22.3594 63.3509 22.1816 63.791 21.8262C64.2311 21.4622 64.5612 20.9629 64.7812 20.3281C65.0013 19.6934 65.1113 18.9655 65.1113 18.1445C65.1113 17.3236 65.0013 16.5957 64.7812 15.9609C64.5612 15.3177 64.2311 14.8141 63.791 14.4502C63.3509 14.0863 62.8177 13.9043 62.1914 13.9043C61.5566 13.9043 61.015 14.0863 60.5664 14.4502C60.1263 14.8141 59.792 15.3177 59.5635 15.9609C59.335 16.5957 59.2207 17.3236 59.2207 18.1445C59.2207 18.957 59.335 19.6849 59.5635 20.3281C59.792 20.9629 60.1263 21.4622 60.5664 21.8262C61.015 22.1816 61.5566 22.3594 62.1914 22.3594ZM73.0586 30.1797C72.2715 30.1797 71.6367 30.1543 71.1543 30.1035V27.1836C71.7975 27.2174 72.3053 27.2344 72.6777 27.2344C72.974 27.2344 73.2194 27.209 73.4141 27.1582C73.6172 27.1074 73.8076 26.9889 73.9854 26.8027C74.1715 26.6165 74.3366 26.3372 74.4805 25.9648L74.709 25.3809L69.7578 11.2129H73.6934L76.5879 21.3691H76.7402L79.6602 11.2129H83.6465L78.2637 26.5234C77.849 27.6999 77.2269 28.6012 76.3975 29.2275C75.568 29.8623 74.4551 30.1797 73.0586 30.1797ZM91.2129 25.2793C89.8333 25.2793 88.6315 24.9788 87.6074 24.3779C86.5918 23.777 85.8132 22.9391 85.2715 21.8643C84.7298 20.7894 84.459 19.5495 84.459 18.1445C84.459 16.7396 84.7298 15.5039 85.2715 14.4375C85.8216 13.3626 86.6045 12.529 87.6201 11.9365C88.6442 11.3356 89.8418 11.0352 91.2129 11.0352C92.3893 11.0352 93.4303 11.251 94.3359 11.6826C95.2415 12.1143 95.9525 12.7279 96.4688 13.5234C96.9935 14.3105 97.2812 15.2246 97.332 16.2656H93.8027C93.6842 15.5632 93.4049 15.0046 92.9648 14.5898C92.5247 14.1667 91.9577 13.9551 91.2637 13.9551C90.6628 13.9551 90.1338 14.1201 89.6768 14.4502C89.2282 14.7718 88.8812 15.2458 88.6357 15.8721C88.3903 16.4984 88.2676 17.2389 88.2676 18.0938C88.2676 18.974 88.3903 19.7272 88.6357 20.3535C88.8812 20.9798 89.2282 21.458 89.6768 21.7881C90.1253 22.1182 90.6543 22.2832 91.2637 22.2832C91.9323 22.2832 92.4951 22.0843 92.9521 21.6865C93.4092 21.2887 93.6927 20.7259 93.8027 19.998H97.332C97.2728 21.0391 96.9893 21.9574 96.4814 22.7529C95.9736 23.5485 95.2669 24.1706 94.3613 24.6191C93.4642 25.0592 92.4147 25.2793 91.2129 25.2793ZM99.668 11.2129H103.299V13.5996H103.451C103.697 12.7617 104.116 12.1227 104.708 11.6826C105.3 11.234 105.99 11.0098 106.777 11.0098C107.209 11.0098 107.607 11.0521 107.971 11.1367V14.4883C107.785 14.4375 107.535 14.391 107.222 14.3486C106.909 14.3063 106.625 14.2852 106.371 14.2852C105.812 14.2852 105.309 14.4079 104.86 14.6533C104.412 14.8988 104.061 15.2415 103.807 15.6816C103.553 16.1133 103.426 16.6042 103.426 17.1543V25H99.668V11.2129ZM115.613 25.2793C114.217 25.2793 113.007 24.9915 111.982 24.416C110.967 23.8405 110.184 23.0195 109.634 21.9531C109.084 20.8783 108.809 19.6172 108.809 18.1699C108.809 16.7565 109.079 15.5124 109.621 14.4375C110.171 13.3542 110.95 12.5163 111.957 11.9238C112.964 11.3314 114.132 11.0352 115.461 11.0352C116.697 11.0352 117.801 11.2975 118.774 11.8223C119.756 12.3385 120.526 13.1214 121.085 14.1709C121.652 15.2204 121.936 16.5026 121.936 18.0176V19.084H112.516C112.516 19.7695 112.643 20.3662 112.896 20.874C113.159 21.3818 113.527 21.7754 114.001 22.0547C114.483 22.3255 115.046 22.4609 115.689 22.4609C116.307 22.4609 116.84 22.3382 117.289 22.0928C117.738 21.8389 118.059 21.4961 118.254 21.0645H121.834C121.656 21.9108 121.292 22.6514 120.742 23.2861C120.192 23.9209 119.477 24.4118 118.597 24.7588C117.725 25.1058 116.73 25.2793 115.613 25.2793ZM118.381 16.7227C118.381 16.1725 118.258 15.6816 118.013 15.25C117.776 14.8099 117.441 14.4671 117.01 14.2217C116.578 13.9762 116.087 13.8535 115.537 13.8535C114.979 13.8535 114.471 13.9805 114.014 14.2344C113.565 14.4883 113.205 14.8353 112.935 15.2754C112.672 15.7155 112.533 16.1979 112.516 16.7227H118.381ZM123.154 11.2129H126.963L129.121 20.5312H129.248L131.508 11.2129H135.24L137.525 20.4805H137.652L139.785 11.2129H143.594L139.811 25H135.85L133.463 16.2402H133.285L130.898 25H126.912L123.154 11.2129Z" fill="white"/>
<rect width="31.868" height="31.868" fill="white"/>
</svg>
